<svg width="80" height="80" viewBox="0 0 80 80" fill="none" xmlns="http://www.w3.org/2000/svg">
<circle cx="40" cy="40" r="40" fill="url(#paint0_linear)"/>
<rect x="21" y="21" width="38" height="38" rx="1" stroke="white" stroke-width="2"/>
<rect x="20" y="21" width="40" height="9" rx="2" fill="white"/>
<path d="M38.1924 37.4727C38.1924 37.1289 38.2926 36.8424 38.4932 36.6133C38.7008 36.3841 39.0088 36.2695 39.417 36.2695C39.8252 36.2695 40.1331 36.3841 40.3408 36.6133C40.5557 36.8424 40.6631 37.1289 40.6631 37.4727C40.6631 37.8021 40.5557 38.0778 40.3408 38.2998C40.1331 38.5218 39.8252 38.6328 39.417 38.6328C39.0088 38.6328 38.7008 38.5218 38.4932 38.2998C38.2926 38.0778 38.1924 37.8021 38.1924 37.4727ZM38.5684 51.1152L37.4404 50.3418C38.1136 49.4036 38.4645 48.4368 38.4932 47.4414V45.6475H40.4375V47.2051C40.4375 47.9284 40.2585 48.6517 39.9004 49.375C39.5495 50.0983 39.1055 50.6784 38.5684 51.1152Z" fill="white"/>
<path d="M38.4932 36.6133L37.7522 35.9418L37.7463 35.9482L37.7406 35.9548L38.4932 36.6133ZM40.3408 36.6133L39.5998 37.2848L39.6055 37.2911L39.6113 37.2972L40.3408 36.6133ZM40.3408 38.2998L39.6222 37.6044L39.6163 37.6105L39.6105 37.6166L40.3408 38.2998ZM38.4932 38.2998L37.7511 38.9701L37.7569 38.9766L37.7629 38.983L38.4932 38.2998ZM38.5684 51.1152L38.0028 51.94L38.6194 52.3627L39.1993 51.891L38.5684 51.1152ZM37.4404 50.3418L36.628 49.7588L36.0324 50.5888L36.8749 51.1665L37.4404 50.3418ZM38.4932 47.4414L39.4928 47.4702L39.4932 47.4558V47.4414H38.4932ZM38.4932 45.6475V44.6475H37.4932V45.6475H38.4932ZM40.4375 45.6475H41.4375V44.6475H40.4375V45.6475ZM39.9004 49.375L39.0042 48.9313L39.0007 48.9385L39.9004 49.375ZM39.1924 37.4727C39.1924 37.3378 39.2254 37.295 39.2457 37.2718L37.7406 35.9548C37.3599 36.3899 37.1924 36.9201 37.1924 37.4727H39.1924ZM39.2342 37.2848C39.2237 37.2963 39.2152 37.2977 39.2286 37.2927C39.2476 37.2856 39.3042 37.2695 39.417 37.2695V35.2695C38.8216 35.2695 38.2051 35.442 37.7522 35.9418L39.2342 37.2848ZM39.417 37.2695C39.5298 37.2695 39.5863 37.2856 39.6054 37.2927C39.6188 37.2977 39.6103 37.2963 39.5998 37.2848L41.0818 35.9418C40.6289 35.442 40.0124 35.2695 39.417 35.2695V37.2695ZM39.6113 37.2972C39.6353 37.3228 39.6631 37.3569 39.6631 37.4727H41.6631C41.6631 36.9009 41.476 36.3621 41.0704 35.9293L39.6113 37.2972ZM39.6631 37.4727C39.6631 37.5615 39.6438 37.5821 39.6222 37.6044L41.0594 38.9952C41.4675 38.5735 41.6631 38.0426 41.6631 37.4727H39.6631ZM39.6105 37.6166C39.6231 37.6033 39.6317 37.6028 39.615 37.6088C39.5929 37.6168 39.5329 37.6328 39.417 37.6328V39.6328C40.0032 39.6328 40.616 39.4694 41.0711 38.983L39.6105 37.6166ZM39.417 37.6328C39.3011 37.6328 39.2411 37.6168 39.219 37.6088C39.2023 37.6028 39.2109 37.6033 39.2234 37.6166L37.7629 38.983C38.218 39.4694 38.8308 39.6328 39.417 39.6328V37.6328ZM39.2353 37.6295C39.2181 37.6105 39.1924 37.5815 39.1924 37.4727H37.1924C37.1924 38.0226 37.3672 38.5451 37.7511 38.9701L39.2353 37.6295ZM39.1339 50.2905L38.006 49.5171L36.8749 51.1665L38.0028 51.94L39.1339 50.2905ZM38.2529 50.9248C39.0233 49.8512 39.4575 48.6952 39.4928 47.4702L37.4936 47.4126C37.4715 48.1785 37.2039 48.9561 36.628 49.7588L38.2529 50.9248ZM39.4932 47.4414V45.6475H37.4932V47.4414H39.4932ZM38.4932 46.6475H40.4375V44.6475H38.4932V46.6475ZM39.4375 45.6475V47.2051H41.4375V45.6475H39.4375ZM39.4375 47.2051C39.4375 47.7574 39.302 48.3298 39.0042 48.9313L40.7966 49.8187C41.2149 48.9736 41.4375 48.0993 41.4375 47.2051H39.4375ZM39.0007 48.9385C38.7033 49.5515 38.3444 50.0084 37.9374 50.3394L39.1993 51.891C39.8666 51.3483 40.3957 50.6451 40.8001 49.8115L39.0007 48.9385Z" fill="white"/>
<defs>
<linearGradient id="paint0_linear" x1="29" y1="23" x2="64.5" y2="71" gradientUnits="userSpaceOnUse">
<stop stop-color="#8A6FFF"/>
<stop offset="0.0001" stop-color="#8A6FFF"/>
<stop offset="1" stop-color="#B2A0FF"/>
</linearGradient>
</defs>
</svg>
