<svg width="24" height="24" viewBox="0 0 24 24" fill="none" xmlns="http://www.w3.org/2000/svg">
<g clip-path="url(#clip0)">
<path d="M11.872 0.522003C5.60502 0.522003 0.507019 5.614 0.507019 11.872C0.507019 18.131 5.60502 23.222 11.872 23.222C18.138 23.222 23.236 18.131 23.236 11.872C23.236 5.614 18.138 0.522003 11.872 0.522003ZM19.35 5.879C20.6907 7.53608 21.4371 9.59476 21.47 11.726C20.0068 11.4435 18.5202 11.2995 17.03 11.296C16.325 11.296 15.583 11.332 14.84 11.424C14.591 10.8139 14.3219 10.2122 14.033 9.62C17.393 8.235 19.013 6.314 19.35 5.879ZM11.872 2.299C14.293 2.299 16.507 3.199 18.197 4.68C17.93 5.045 16.478 6.86 13.239 8.084C12.1798 6.16528 11.0001 4.31557 9.70702 2.546C10.4169 2.38163 11.1433 2.29876 11.872 2.299ZM7.74802 3.229C8.07802 3.685 9.72202 5.979 11.261 8.699C7.13302 9.783 3.46702 9.854 2.58202 9.854H2.48802C2.80247 8.42211 3.43979 7.08095 4.35137 5.93281C5.26295 4.78468 6.4247 3.85989 7.74802 3.229ZM2.27002 11.887C2.27002 11.808 2.27202 11.729 2.27402 11.651H2.52602C3.71802 11.651 7.85402 11.553 12.116 10.288C12.374 10.794 12.621 11.308 12.85 11.821C12.742 11.851 12.636 11.882 12.53 11.917C7.73202 13.467 5.09402 17.57 4.68802 18.24C3.12931 16.4911 2.26863 14.2297 2.27002 11.887ZM11.872 21.475C9.75275 21.4771 7.69286 20.775 6.01602 19.479C6.29002 18.941 8.28102 15.357 13.54 13.526C13.5433 13.5248 13.5466 13.5238 13.55 13.523C14.869 16.956 15.427 19.837 15.58 20.73C14.4061 21.2231 13.1453 21.4764 11.872 21.475ZM17.31 19.785C17.181 19.046 16.664 16.345 15.47 13.052C16.1093 12.9541 16.7553 12.9056 17.402 12.907C19.409 12.907 20.978 13.347 21.343 13.457C21.1298 14.7284 20.6629 15.9439 19.97 17.0311C19.2771 18.1183 18.3725 19.0548 17.31 19.785Z" fill="#757384"/>
</g>
<defs>
<clipPath id="clip0">
<rect width="24" height="24" fill="white"/>
</clipPath>
</defs>
</svg>
