<svg width="22" height="22" viewBox="0 0 22 22" fill="none" xmlns="http://www.w3.org/2000/svg">
<g clip-path="url(#clip0)">
<path d="M10.952 16.562C9.47741 16.5601 8.06377 15.9736 7.0211 14.9309C5.97842 13.8882 5.39183 12.4746 5.38998 11C5.39157 9.52535 5.97807 8.11156 7.0208 7.06882C8.06354 6.02609 9.47733 5.43958 10.952 5.438C12.4265 5.43985 13.8402 6.02644 14.8829 7.06911C15.9255 8.11179 16.5121 9.52543 16.514 11C16.5119 12.4745 15.9252 13.888 14.8826 14.9306C13.8399 15.9732 12.4265 16.5599 10.952 16.562ZM10.952 7.788C10.1004 7.78905 9.28406 8.1278 8.68192 8.72994C8.07978 9.33208 7.74104 10.1484 7.73998 11C7.74104 11.8515 8.07978 12.6679 8.68192 13.2701C9.28406 13.8722 10.1004 14.2109 10.952 14.212C11.8034 14.2107 12.6195 13.8718 13.2214 13.2697C13.8233 12.6676 14.1619 11.8514 14.163 11C14.163 9.23 12.723 7.788 10.952 7.788ZM16.692 6.588C15.967 6.588 15.376 5.998 15.376 5.272C15.3945 4.93552 15.5413 4.61893 15.786 4.38729C16.0308 4.15566 16.355 4.02658 16.692 4.02658C17.029 4.02658 17.3532 4.15566 17.5979 4.38729C17.8427 4.61893 17.9894 4.93552 18.008 5.272C18.008 5.998 17.418 6.588 16.693 6.588H16.692ZM21.75 16.35C21.7484 17.7944 21.1739 19.1792 20.1525 20.2006C19.1312 21.2219 17.7464 21.7964 16.302 21.798H5.60198C4.15722 21.7969 2.77191 21.2227 1.75012 20.2013C0.728335 19.1799 0.153567 17.7948 0.151978 16.35V5.65C0.153566 4.20541 0.728198 2.82046 1.74977 1.79908C2.77134 0.777696 4.15639 0.203319 5.60098 0.201996H16.302C17.7464 0.203584 19.1312 0.778078 20.1525 1.79943C21.1739 2.82079 21.7484 4.20558 21.75 5.65V16.35ZM16.302 2.552H5.60198C4.78041 2.55253 3.99262 2.87906 3.41159 3.4599C2.83056 4.04075 2.50377 4.82843 2.50298 5.65V16.35C2.50377 17.1712 2.83028 17.9586 3.41088 18.5394C3.99148 19.1202 4.77875 19.4469 5.59998 19.448H16.301C17.1225 19.4472 17.9101 19.1206 18.4911 18.5398C19.072 17.959 19.3989 17.1715 19.4 16.35V5.65C19.3992 4.8286 19.0725 4.04107 18.4917 3.46026C17.9109 2.87944 17.1234 2.55279 16.302 2.552Z" fill="#757384"/>
</g>
<defs>
<clipPath id="clip0">
<rect width="22" height="22" fill="white"/>
</clipPath>
</defs>
</svg>
