<svg width="41" height="41" viewBox="0 0 41 41" fill="none" xmlns="http://www.w3.org/2000/svg">
<rect width="9.41176" height="39.2941" rx="4.70588" fill="#8A6FFF"/>
<rect x="15.2941" width="9.41176" height="39.2941" rx="4.70588" fill="#8A6FFF"/>
<rect x="30.5882" width="9.41176" height="39.2941" rx="4.70588" fill="#8A6FFF"/>
<rect x="30" y="24" width="11" height="16" rx="5" fill="white"/>
<rect x="15" y="19" width="11" height="22" rx="5" fill="white"/>
<rect y="13" width="10" height="27" rx="5" fill="white"/>
<circle cx="1.68561" cy="20.6856" r="1.68561" fill="#FF6E6E" fill-opacity="0.7"/>
<circle cx="1.68561" cy="25.7425" r="1.68561" fill="#FF6E6E"/>
<circle cx="1.68561" cy="30.7993" r="1.68561" fill="#FF6E6E"/>
<circle cx="1.68561" cy="35.8561" r="1.68561" fill="#FF6E6E"/>
<circle cx="8.42811" cy="25.7425" r="1.68561" fill="#FF6E6E" fill-opacity="0.6"/>
<circle cx="8.42811" cy="30.7993" r="1.68561" fill="#FF6E6E"/>
<circle cx="15.1705" cy="30.9679" r="1.68561" fill="#FF6E6E" fill-opacity="0.5"/>
<circle cx="8.42811" cy="35.8561" r="1.68561" fill="#FF6E6E"/>
<circle cx="15.1705" cy="35.8561" r="1.68561" fill="#FF6E6E"/>
<circle cx="21.913" cy="35.8561" r="1.68561" fill="#FF6E6E" fill-opacity="0.4"/>
<rect x="38" y="27" width="2" height="10" rx="1" fill="#F998CC"/>
<rect x="40" y="35" width="2" height="12" rx="1" transform="rotate(90 40 35)" fill="#F998CC"/>
</svg>
