<svg width="99" height="27" viewBox="0 0 99 27" fill="none" xmlns="http://www.w3.org/2000/svg">
<path d="M9.112 26.224C7.46933 26.224 5.99733 25.9573 4.696 25.424C3.39467 24.8907 2.34933 24.1013 1.56 23.056C0.792 22.0107 0.386667 20.752 0.344 19.28H6.168C6.25333 20.112 6.54133 20.752 7.032 21.2C7.52267 21.6267 8.16267 21.84 8.952 21.84C9.76267 21.84 10.4027 21.6587 10.872 21.296C11.3413 20.912 11.576 20.3893 11.576 19.728C11.576 19.1733 11.384 18.7147 11 18.352C10.6373 17.9893 10.1787 17.6907 9.624 17.456C9.09067 17.2213 8.32267 16.9547 7.32 16.656C5.86933 16.208 4.68533 15.76 3.768 15.312C2.85067 14.864 2.06133 14.2027 1.4 13.328C0.738667 12.4533 0.408 11.312 0.408 9.904C0.408 7.81333 1.16533 6.18133 2.68 5.008C4.19467 3.81333 6.168 3.216 8.6 3.216C11.0747 3.216 13.0693 3.81333 14.584 5.008C16.0987 6.18133 16.9093 7.824 17.016 9.936H11.096C11.0533 9.21067 10.7867 8.64533 10.296 8.24C9.80533 7.81333 9.176 7.6 8.408 7.6C7.74667 7.6 7.21333 7.78133 6.808 8.144C6.40267 8.48533 6.2 8.98667 6.2 9.648C6.2 10.3733 6.54133 10.9387 7.224 11.344C7.90667 11.7493 8.97333 12.1867 10.424 12.656C11.8747 13.1467 13.048 13.616 13.944 14.064C14.8613 14.512 15.6507 15.1627 16.312 16.016C16.9733 16.8693 17.304 17.968 17.304 19.312C17.304 20.592 16.9733 21.7547 16.312 22.8C15.672 23.8453 14.7333 24.6773 13.496 25.296C12.2587 25.9147 10.7973 26.224 9.112 26.224Z" fill="#F998CC"/>
<path d="M31.6475 7.952C33.6955 7.952 35.3382 8.63467 36.5755 10C37.8128 11.344 38.4315 13.2 38.4315 15.568V26H32.9915V16.304C32.9915 15.1093 32.6822 14.1813 32.0635 13.52C31.4448 12.8587 30.6128 12.528 29.5675 12.528C28.5222 12.528 27.6902 12.8587 27.0715 13.52C26.4528 14.1813 26.1435 15.1093 26.1435 16.304V26H20.6715V2.32H26.1435V10.544C26.6982 9.75467 27.4555 9.12533 28.4155 8.656C29.3755 8.18667 30.4528 7.952 31.6475 7.952Z" fill="#E1306C"/>
<path d="M44.986 6.288C44.026 6.288 43.2367 6.01067 42.618 5.456C42.0207 4.88 41.722 4.176 41.722 3.344C41.722 2.49067 42.0207 1.78667 42.618 1.232C43.2367 0.655998 44.026 0.367998 44.986 0.367998C45.9247 0.367998 46.6927 0.655998 47.29 1.232C47.9087 1.78667 48.218 2.49067 48.218 3.344C48.218 4.176 47.9087 4.88 47.29 5.456C46.6927 6.01067 45.9247 6.288 44.986 6.288ZM47.706 8.144V26H42.234V8.144H47.706Z" fill="#8A6FFF"/>
<path d="M62.5515 7.952C64.6422 7.952 66.3062 8.63467 67.5435 10C68.8022 11.344 69.4315 13.2 69.4315 15.568V26H63.9915V16.304C63.9915 15.1093 63.6822 14.1813 63.0635 13.52C62.4448 12.8587 61.6128 12.528 60.5675 12.528C59.5222 12.528 58.6902 12.8587 58.0715 13.52C57.4528 14.1813 57.1435 15.1093 57.1435 16.304V26H51.6715V8.144H57.1435V10.512C57.6982 9.72267 58.4448 9.104 59.3835 8.656C60.3222 8.18667 61.3782 7.952 62.5515 7.952Z" fill="#323275"/>
<path d="M90.066 16.784C90.066 17.296 90.034 17.8293 89.97 18.384H77.586C77.6713 19.4933 78.0233 20.3467 78.642 20.944C79.282 21.52 80.0607 21.808 80.978 21.808C82.3433 21.808 83.2927 21.232 83.826 20.08H89.65C89.3513 21.2533 88.8073 22.3093 88.018 23.248C87.25 24.1867 86.2793 24.9227 85.106 25.456C83.9327 25.9893 82.6207 26.256 81.17 26.256C79.4207 26.256 77.8633 25.8827 76.498 25.136C75.1327 24.3893 74.066 23.3227 73.298 21.936C72.53 20.5493 72.146 18.928 72.146 17.072C72.146 15.216 72.5193 13.5947 73.266 12.208C74.034 10.8213 75.1007 9.75467 76.466 9.008C77.8313 8.26133 79.3993 7.888 81.17 7.888C82.898 7.888 84.434 8.25067 85.778 8.976C87.122 9.70133 88.1673 10.736 88.914 12.08C89.682 13.424 90.066 14.992 90.066 16.784ZM84.466 15.344C84.466 14.4053 84.146 13.6587 83.506 13.104C82.866 12.5493 82.066 12.272 81.106 12.272C80.1887 12.272 79.41 12.5387 78.77 13.072C78.1513 13.6053 77.7673 14.3627 77.618 15.344H84.466Z" fill="#FF6E6E"/>
<path d="M95.5128 26.256C94.5528 26.256 93.7634 25.9787 93.1448 25.424C92.5474 24.848 92.2488 24.144 92.2488 23.312C92.2488 22.4587 92.5474 21.744 93.1448 21.168C93.7634 20.592 94.5528 20.304 95.5128 20.304C96.4514 20.304 97.2194 20.592 97.8168 21.168C98.4354 21.744 98.7448 22.4587 98.7448 23.312C98.7448 24.144 98.4354 24.848 97.8168 25.424C97.2194 25.9787 96.4514 26.256 95.5128 26.256Z" fill="black"/>
</svg>
